<mxfile host="app.diagrams.net" modified="2023-11-03T10:12:58.364Z" agent="Mozilla/5.0 (Macintosh; Intel Mac OS X 10_15_7) AppleWebKit/537.36 (KHTML, like Gecko) Chrome/119.0.0.0 Safari/537.36" version="22.0.8" etag="XvGTac89cfnpSc4HC5pP" type="github">
  <diagram name="第 1 页" id="9sFBwYhqwxBm26JA0SG9">
    <mxGraphModel>
      <root>
        <mxCell id="0" />
        <mxCell id="1" parent="0" />
      </root>
    </mxGraphModel>
  </diagram>
</mxfile>
